<svg width="503" height="299" viewBox="0 0 503 299" fill="none" xmlns="http://www.w3.org/2000/svg">
<path d="M468.364 22.6254L468.644 22.8637H468.727C478.257 31.1646 486.019 41.3053 491.547 52.6801C497.13 64.1664 500.318 76.6707 500.917 89.4309C501.517 102.191 499.515 114.94 495.034 126.9C490.554 138.859 483.688 149.78 474.855 158.996C474.854 158.997 474.854 158.998 474.853 158.998L346.763 291.308L346.758 291.314C344.914 293.245 342.698 294.783 340.245 295.833C337.791 296.883 335.151 297.425 332.482 297.425C329.814 297.425 327.174 296.883 324.72 295.833C322.266 294.783 320.051 293.245 318.207 291.314L318.202 291.308L190.069 159C190.068 158.999 190.068 158.999 190.067 158.998C181.251 149.77 174.402 138.843 169.935 126.881C165.468 114.918 163.478 102.171 164.086 89.4143C164.693 76.6575 167.885 64.1578 173.469 52.6752C179.052 41.1929 186.909 30.9676 196.562 22.621C232.187 -7.95202 285.592 -2.46831 318.527 31.6002L318.532 31.6061L318.538 31.6118L331.753 44.8432L332.46 45.5517L333.168 44.8432L346.383 31.6118L346.389 31.6051L346.396 31.5983C379.151 -2.46492 432.514 -7.86818 468.364 22.6254Z" fill="white" stroke="white" stroke-width="2"/>
<path d="M387.364 22.6254L387.644 22.8637H387.727C397.257 31.1646 405.019 41.3053 410.547 52.6801C416.13 64.1664 419.318 76.6707 419.917 89.4309C420.517 102.191 418.515 114.94 414.034 126.9C409.554 138.859 402.688 149.78 393.855 158.996C393.854 158.997 393.854 158.998 393.853 158.998L265.763 291.308L265.758 291.314C263.914 293.245 261.698 294.783 259.245 295.833C256.791 296.883 254.151 297.425 251.482 297.425C248.814 297.425 246.174 296.883 243.72 295.833C241.266 294.783 239.051 293.245 237.207 291.314L237.202 291.308L109.069 159C109.068 158.999 109.068 158.999 109.067 158.998C100.251 149.77 93.4016 138.843 88.9351 126.881C84.4683 114.918 82.4781 102.171 83.0856 89.4143C83.6931 76.6575 86.8853 64.1578 92.4685 52.6752C98.0515 41.1929 105.909 30.9676 115.562 22.621C151.187 -7.95202 204.592 -2.46831 237.527 31.6002L237.532 31.6061L237.538 31.6118L250.753 44.8432L251.46 45.5517L252.168 44.8432L265.383 31.6118L265.389 31.6051L265.396 31.5983C298.151 -2.46492 351.514 -7.86818 387.364 22.6254Z" fill="#FFB496" stroke="white" stroke-width="2"/>
<path d="M306.364 22.6254L306.644 22.8637H306.727C316.257 31.1646 324.019 41.3053 329.547 52.6801C335.13 64.1664 338.318 76.6707 338.917 89.4309C339.517 102.191 337.515 114.94 333.034 126.9C328.554 138.859 321.688 149.78 312.855 158.996C312.854 158.997 312.854 158.998 312.853 158.998L184.763 291.308L184.758 291.314C182.914 293.245 180.698 294.783 178.245 295.833C175.791 296.883 173.151 297.425 170.482 297.425C167.814 297.425 165.174 296.883 162.72 295.833C160.266 294.783 158.051 293.245 156.207 291.314L156.202 291.308L28.0687 159C28.0682 158.999 28.0677 158.999 28.0673 158.998C19.2512 149.77 12.4016 138.843 7.93511 126.881C3.46833 114.918 1.47815 102.171 2.08562 89.4143C2.6931 76.6575 5.88531 64.1578 11.4685 52.6752C17.0515 41.1929 24.9088 30.9676 34.5619 22.621C70.1874 -7.95202 123.592 -2.46831 156.527 31.6002L156.532 31.6061L156.538 31.6118L169.753 44.8432L170.46 45.5517L171.168 44.8432L184.383 31.6118L184.389 31.6051L184.396 31.5983C217.151 -2.46492 270.514 -7.86818 306.364 22.6254Z" fill="#FA8282" stroke="white" stroke-width="2"/>
</svg>
