<svg width="240" height="31" viewBox="0 0 240 31" fill="none" xmlns="http://www.w3.org/2000/svg">
<g clip-path="url(#clip0_10_115)">
<path d="M119.112 3.99883C120.708 3.96931 122.3 4.17082 123.838 4.59708C125.014 4.91667 126.121 5.45039 127.103 6.17142C127.915 6.78417 128.563 7.5871 128.99 8.50932C129.397 9.39041 129.609 10.349 129.612 11.3195C129.607 12.1033 129.474 12.8811 129.218 13.622C128.949 14.4023 128.54 15.1266 128.009 15.7592C127.41 16.4671 126.69 17.0628 125.882 17.5185C124.888 18.072 123.81 18.4627 122.692 18.6756L130.282 28.4601H123.948L116.5 19.0141H107.989C107.442 19.0141 107.17 19.2188 107.17 19.632V28.472H101.463V18.7858C101.463 17.4083 101.857 16.4243 102.672 15.8143C103.487 15.2042 104.783 14.909 106.587 14.909H119.305C120.009 14.9234 120.711 14.825 121.384 14.6178C121.898 14.4617 122.375 14.2033 122.787 13.8581C123.127 13.5575 123.396 13.1851 123.574 12.7679C123.749 12.3683 123.839 11.9367 123.838 11.5006C123.836 11.0664 123.738 10.6381 123.55 10.2467C123.362 9.85529 123.089 9.51055 122.751 9.23745C122.026 8.5946 120.874 8.27448 119.293 8.2771H101.416V3.99883H119.112Z" fill="#F5F5F5"/>
<path d="M163.307 3.99882V8.27709H146.966C145.225 8.27709 143.967 8.55391 143.193 9.10756C142.823 9.35281 142.52 9.68727 142.314 10.0801C142.107 10.4728 142.003 10.9113 142.011 11.3549C142.011 13.2914 143.672 14.2583 146.993 14.2556H163.047V18.1325H146.867C143.546 18.1325 141.886 19.123 141.889 21.104C141.875 21.554 141.979 21.9997 142.191 22.3973C142.402 22.7948 142.713 23.1305 143.094 23.3711C143.9 23.9142 145.142 24.1858 146.82 24.1858H163.362V28.4601H146.82C145.153 28.4887 143.488 28.3183 141.861 27.9524C140.661 27.6868 139.517 27.2154 138.478 26.5591C137.655 26.0382 136.987 25.3054 136.544 24.4377C136.14 23.6151 135.933 22.7094 135.942 21.7928C135.898 20.5179 136.327 19.2717 137.147 18.2938C138.094 17.2799 139.303 16.5471 140.64 16.1763C137.579 15.2344 136.048 13.3976 136.048 10.6662C136.039 9.73509 136.256 8.81569 136.678 7.98584C137.139 7.1198 137.818 6.38867 138.647 5.86441C139.685 5.20986 140.83 4.74476 142.031 4.4908C143.659 4.13674 145.323 3.97166 146.989 3.99882H163.307Z" fill="#F5F5F5"/>
<path d="M175.206 28.4601H168.904L180.361 6.71849C180.907 5.62251 181.824 4.75519 182.949 4.2704C184.315 3.75456 185.771 3.51509 187.23 3.56588C188.673 3.51791 190.111 3.7574 191.46 4.2704C192.578 4.74767 193.481 5.61902 193.997 6.71849L205.025 28.4601H198.704L188.79 8.78088C188.638 8.50328 188.407 8.27635 188.127 8.12807C187.847 7.9798 187.53 7.91667 187.215 7.94648C186.885 7.91233 186.552 7.9731 186.255 8.12162C185.959 8.27014 185.711 8.50023 185.541 8.78482L175.206 28.4601Z" fill="#F5F5F5"/>
<path d="M225.321 3.99881C230.126 3.99881 233.777 5.00245 236.274 7.00974C238.771 9.01702 240.02 12.0962 240.02 16.2472C240.02 20.3798 238.771 23.4485 236.274 25.4531C233.777 27.4578 230.126 28.4601 225.321 28.4601H213.792C211.985 28.4601 211.083 27.7989 211.083 26.4686V6.00216C211.083 4.67184 211.986 4.00668 213.792 4.00668L225.321 3.99881ZM216.809 23.7528C216.809 24.0402 217.018 24.1858 217.44 24.1858H225.317C228.468 24.1858 230.756 23.5574 232.182 22.3005C233.608 21.0437 234.318 19.0141 234.313 16.2118C234.313 13.4094 233.61 11.3864 232.205 10.1427C230.801 8.89895 228.506 8.27708 225.321 8.27708H217.444C217.022 8.27708 216.813 8.42271 216.813 8.71002L216.809 23.7528Z" fill="#F5F5F5"/>
<path d="M92.4198 3.99884H86.7127V8.98556H92.4198V3.99884Z" fill="#F5F5F5"/>
<path d="M92.4198 14.9838H86.7127V28.4641H92.4198V14.9838Z" fill="#F5F5F5"/>
<path d="M11.3393 6.84838C10.0553 15.6096 7.66456 22.4934 2.63494 27.2361C1.84111 26.3266 0.958419 25.4986 0 24.7644C4.64758 20.7813 6.83351 14.5902 7.94027 6.84838H0.972841V3.88469H8.32231C8.46017 2.63309 8.56651 1.35 8.66891 0L12.1034 0.232215C11.9971 1.48382 11.8592 2.7 11.7095 3.88469H30.5401V6.84838H11.3393ZM21.8121 8.30071C21.7607 11.1124 21.5172 13.9173 21.0835 16.6959C23.0528 21.537 26.7039 25.6539 31.3475 27.7163C30.5339 28.4175 29.8326 29.2391 29.2679 30.1526C25.3844 28.2083 22.265 24.9494 20.0082 20.8994C18.484 25.0084 15.5694 28.2555 9.87807 30.3297C9.38334 29.3979 8.72573 28.5621 7.93633 27.8619C17.7829 24.4692 18.2004 17.4201 18.5155 8.30071H21.8121ZM10.784 18.7386C11.7922 16.9596 12.6587 14.1612 13.1077 11.9886L15.7427 12.8781C15.2582 15.0822 14.5296 17.9947 13.5252 19.758L10.784 18.7386ZM23.2694 17.7822C24.5523 15.8569 25.6332 13.8047 26.4951 11.658L29.2522 12.9096C28.2004 15.0132 27.0165 17.0482 25.7074 19.0023L23.2694 17.7822Z" fill="#F5F5F5"/>
<path d="M41.4225 29.9361L38.4055 28.834C39.171 28.1807 39.8582 27.4411 40.4536 26.63C41.0652 25.8384 41.6218 25.006 42.1196 24.1386L45.2036 24.7171C44.6848 25.7264 44.0757 26.6867 43.3839 27.5864C42.4466 28.8826 41.7927 29.6658 41.4225 29.9361ZM39.0318 7.8953L38.8585 5.4905C39.3429 5.4905 39.9101 5.4905 40.556 5.45901C41.7025 3.99252 42.6913 2.40945 43.506 0.735992L46.5073 1.22404C46.0714 2.21062 45.1524 3.59342 43.7502 5.37242L49.7842 5.04181C49.2761 4.34123 48.8114 3.74692 48.3978 3.26281L50.9264 2.08205C51.6222 2.86107 52.2494 3.69857 52.8012 4.58525C53.7504 6.03365 54.3294 6.90347 54.5342 7.18685L51.8638 8.17475C51.6078 7.78117 51.3675 7.40726 51.1351 7.05697C47.8083 7.36134 43.7712 7.64472 39.0239 7.90711L39.0318 7.8953ZM49.7133 18.0498H43.0885V22.6469H40.0716V9.20594H52.6948V20.4861C52.6905 20.7668 52.6228 21.0429 52.4966 21.2937C52.3704 21.5445 52.1891 21.7636 51.9662 21.9345C51.3783 22.4067 50.6404 22.6525 49.8866 22.6272H47.3423L47.102 20.1555H48.8468C49.4219 20.1555 49.7133 19.9587 49.7133 19.5651V18.0498ZM49.7133 12.8151V11.1463H43.0885V12.8269L49.7133 12.8151ZM43.0885 16.2393H49.7133V14.5705H43.0885V16.2393ZM49.2289 29.7314C48.6748 28.1571 48.0617 26.466 47.3895 24.6581L50.3711 24.1386C50.8122 24.9501 51.1952 25.7919 51.5172 26.6575C51.894 27.4881 52.2189 28.3412 52.49 29.2119L49.2289 29.7314ZM57.2755 29.4716C56.5586 27.8973 55.7709 26.2154 54.9123 24.4259L57.8623 23.8198C57.9752 24.0113 58.4255 24.8418 59.2133 26.3112C60.001 27.7792 60.4382 28.6097 60.5327 28.8025L57.2755 29.4716ZM65.8065 22.1628C63.2086 22.347 60.6005 22.3365 58.0041 22.1313C57.2401 22.0637 56.52 21.7454 55.956 21.226C55.711 20.9965 55.5168 20.7182 55.3859 20.4091C55.2549 20.1 55.1902 19.7669 55.1959 19.4313V12.6498H58.3822V14.3265C62.4548 13.6023 65.4035 12.8676 67.2284 12.1224L68.4769 14.5587C66.6389 15.1963 63.274 15.8982 58.3822 16.6644V18.6323C58.3822 19.14 58.7446 19.4549 59.4575 19.5887C62.2119 19.8511 64.2245 19.8406 65.4954 19.5572C65.7267 19.5369 65.9465 19.4471 66.1257 19.2995C66.305 19.152 66.4354 18.9537 66.4997 18.7307C66.5706 18.5142 66.6494 18.5497 66.7439 16.9911L69.3473 17.2862V19.5572C69.3433 19.8975 69.2557 20.2316 69.0923 20.5301C68.9288 20.8286 68.6945 21.0825 68.41 21.2693C67.6583 21.8343 66.747 22.1471 65.8065 22.1628ZM65.4127 10.8708C62.9281 10.9858 60.439 10.9635 57.9568 10.8039C56.1766 10.6491 55.2865 9.8265 55.2865 8.33612V1.09022H58.3704V3.69182C62.0963 3.0096 64.9072 2.2959 66.803 1.55071L68.083 3.72724C65.9562 4.42782 62.7186 5.17301 58.3704 5.9628V7.51353C58.3704 8.01732 58.7209 8.3007 59.4141 8.40303C61.2214 8.62033 63.0476 8.63089 64.8573 8.43452C65.5781 8.36761 65.9916 8.08816 66.1059 7.59224C66.2631 7.15657 66.3223 6.69159 66.2792 6.23044L68.8471 6.52563V8.40303C68.8425 8.73652 68.7583 9.06409 68.6014 9.35847C68.4445 9.65285 68.2195 9.90552 67.9452 10.0954C67.2037 10.6137 66.3174 10.885 65.4127 10.8708ZM63.3961 24.7211L66.3619 24.0205C66.3619 24.0205 66.8384 24.662 67.8467 26.0829C68.5478 27.0708 69.5955 28.6412 69.816 29.0466L66.2713 29.6173C66.2713 29.6173 65.7238 28.531 64.9125 27.1101C64.2744 25.9569 63.4079 24.7211 63.4079 24.7211H63.3961Z" fill="#F5F5F5"/>
</g>
<defs>
<clipPath id="clip0_10_115">
<rect width="240" height="30.3297" fill="white"/>
</clipPath>
</defs>
</svg>
